<?xml version="1.0" encoding="UTF-8" standalone="no"?>
<svg
   xmlns:dc="http://purl.org/dc/elements/1.1/"
   xmlns:cc="http://creativecommons.org/ns#"
   xmlns:rdf="http://www.w3.org/1999/02/22-rdf-syntax-ns#"
   xmlns:svg="http://www.w3.org/2000/svg"
   xmlns="http://www.w3.org/2000/svg"
   xmlns:sodipodi="http://sodipodi.sourceforge.net/DTD/sodipodi-0.dtd"
   xmlns:inkscape="http://www.inkscape.org/namespaces/inkscape"
   id="Layer_1"
   enable-background="new 0 0 512 512"
   height="512"
   viewBox="0 0 512 512"
   width="512"
   version="1.1"
   sodipodi:docname="favicon.svg"
   inkscape:version="0.92.4 5da689c313, 2019-01-14">
  <metadata
     id="metadata35">
    <rdf:RDF>
      <cc:Work
         rdf:about="">
        <dc:format>image/svg+xml</dc:format>
        <dc:type
           rdf:resource="http://purl.org/dc/dcmitype/StillImage" />
        <dc:title></dc:title>
      </cc:Work>
    </rdf:RDF>
  </metadata>
  <defs
     id="defs33" />
  <sodipodi:namedview
     pagecolor="#ffffff"
     bordercolor="#666666"
     borderopacity="1"
     objecttolerance="10"
     gridtolerance="10"
     guidetolerance="10"
     inkscape:pageopacity="0"
     inkscape:pageshadow="2"
     inkscape:window-width="1279"
     inkscape:window-height="750"
     id="namedview31"
     showgrid="false"
     inkscape:zoom="1.3037281"
     inkscape:cx="198.24668"
     inkscape:cy="324.1182"
     inkscape:window-x="0"
     inkscape:window-y="28"
     inkscape:window-maximized="0"
     inkscape:current-layer="g28" />
  <g
     id="g28">
    <path
       d="m 500.879,289.165 c -7.72,-2.07 -16.152,2.326 -18.371,10.606 l -0.347,1.296 -34.708,-9.3 c 2.162,-11.599 3.304,-23.552 3.304,-35.768 0,-12.217 -1.143,-24.171 -3.305,-35.771 l 34.708,-9.3 0.347,1.296 c 2.219,8.281 10.652,12.676 18.371,10.606 8.002,-2.144 12.751,-10.369 10.606,-18.371 l -8.459,-31.569 c -2.145,-8.002 -10.365,-12.752 -18.371,-10.606 -8.002,2.144 -12.75,10.369 -10.606,18.371 l 0.347,1.296 -34.718,9.303 c -8.09,-22.882 -20.335,-43.815 -35.834,-61.884 l 25.481,-25.481 0.949,0.949 c 5.856,5.857 15.355,5.859 21.213,0 5.858,-5.858 5.858,-15.355 0,-21.213 l -23.11,-23.11 c -5.857,-5.858 -15.355,-5.858 -21.213,0 -5.858,5.858 -5.858,15.355 0,21.213 l 0.949,0.949 -25.481,25.48 C 364.56,92.657 343.626,80.411 320.743,72.322 l 9.302,-34.716 1.296,0.347 c 8.314,2.228 16.314,-2.928 18.371,-10.606 2.144,-8.002 -2.604,-16.227 -10.606,-18.371 L 307.537,0.517 c -8.003,-2.145 -16.228,2.605 -18.371,10.606 -2.144,8.002 2.604,16.227 10.606,18.371 l 1.296,0.347 -9.3,34.708 C 280.169,62.387 268.216,61.245 256,61.245 c -12.216,0 -24.169,1.142 -35.768,3.304 l -9.3,-34.708 1.296,-0.347 C 220.23,27.35 224.978,19.125 222.834,11.123 220.691,3.12 212.466,-1.63 204.464,0.515 l -31.569,8.459 c -8.002,2.144 -12.75,10.369 -10.606,18.371 2.057,7.679 10.057,12.835 18.371,10.606 l 1.296,-0.347 9.302,34.716 c -22.883,8.09 -43.817,20.335 -61.888,35.835 l -25.481,-25.48 0.949,-0.949 c 5.858,-5.858 5.858,-15.355 0,-21.213 -5.857,-5.858 -15.355,-5.858 -21.213,0 l -23.11,23.11 c -5.858,5.858 -5.858,15.355 0,21.213 5.858,5.859 15.357,5.857 21.213,0 l 0.949,-0.949 25.481,25.481 c -15.499,18.07 -27.744,39.003 -35.834,61.884 l -34.718,-9.303 0.347,-1.296 c 2.144,-8.002 -2.604,-16.227 -10.606,-18.371 -8.006,-2.146 -16.227,2.604 -18.371,10.606 L 0.515,204.46 c -2.144,8.002 2.604,16.227 10.606,18.371 7.72,2.07 16.152,-2.326 18.371,-10.606 l 0.347,-1.296 34.708,9.3 c -2.162,11.6 -3.305,23.554 -3.305,35.771 0,12.216 1.142,24.169 3.304,35.768 l -34.708,9.3 -0.347,-1.296 C 27.272,291.491 18.839,287.096 11.12,289.166 3.118,291.31 -1.63,299.535 0.514,307.537 l 8.459,31.569 c 2.145,8.002 10.365,12.752 18.371,10.606 8.002,-2.144 12.75,-10.369 10.606,-18.371 l -0.347,-1.296 34.716,-9.302 c 8.09,22.883 20.335,43.817 35.835,61.888 l -25.481,25.481 -0.949,-0.949 c -5.856,-5.857 -15.355,-5.859 -21.213,0 -5.858,5.858 -5.858,15.355 0,21.213 l 23.11,23.11 c 5.857,5.858 15.355,5.858 21.213,0 5.858,-5.858 5.858,-15.355 0,-21.213 l -0.949,-0.949 25.481,-25.48 c 18.071,15.5 39.005,27.746 61.888,35.835 l -9.302,34.716 -1.296,-0.347 c -8.314,-2.228 -16.314,2.928 -18.371,10.606 -2.144,8.002 2.604,16.227 10.606,18.371 l 31.569,8.459 c 8.003,2.145 16.228,-2.605 18.371,-10.606 2.144,-8.002 -2.604,-16.227 -10.606,-18.371 l -1.296,-0.347 9.3,-34.708 c 11.599,2.162 23.552,3.304 35.768,3.304 12.216,0 24.169,-1.142 35.768,-3.304 l 9.3,34.708 -1.296,0.347 c -8.002,2.144 -12.75,10.369 -10.606,18.371 2.144,8.001 10.368,12.751 18.371,10.606 l 31.569,-8.459 c 8.002,-2.144 12.75,-10.369 10.606,-18.371 -2.057,-7.679 -10.057,-12.835 -18.371,-10.606 l -1.296,0.347 -9.302,-34.716 c 22.883,-8.09 43.817,-20.335 61.888,-35.835 l 25.481,25.48 -0.949,0.949 c -5.858,5.858 -5.858,15.355 0,21.213 5.857,5.858 15.355,5.858 21.213,0 l 23.11,-23.11 c 5.858,-5.858 5.858,-15.355 0,-21.213 -5.858,-5.859 -15.357,-5.857 -21.213,0 l -0.949,0.949 -25.481,-25.481 c 15.5,-18.071 27.746,-39.005 35.835,-61.888 l 34.716,9.302 -0.347,1.296 c -2.144,8.002 2.604,16.227 10.606,18.371 8.006,2.146 16.227,-2.604 18.371,-10.606 l 8.459,-31.569 c 2.149,-8.003 -2.599,-16.228 -10.601,-18.372 z M 249.09672,428.53634 c -90.847,0 -164.362195,-83.85883 -164.362195,-174.70583 0,-90.847 82.611555,-175.505027 173.434965,-173.434968 95.18598,2.169492 171.26548,73.909998 171.26548,164.756998 0,29.25292 -65.12112,43.80514 -84.34843,67.63336 -50.97323,63.1706 -34.39574,115.75044 -95.98982,115.75044 z"
       id="path2"
       inkscape:connector-curvature="0"
       sodipodi:nodetypes="ccccsccccccccccccccscssccccccccccccsccccccccccccscssccccccccccccccsccccccccccccccscssccccccccccccsccccccccccccscsscccccccccccssssss"
       style="fill:#031926;fill-opacity:1" />
    <circle
       cx="256"
       cy="143.533"
       r="15"
       id="circle4"
       style="fill:#031926;fill-opacity:0.94117647" />
    <circle
       cx="256"
       cy="368.467"
       r="15"
       id="circle6"
       style="fill:#031926;fill-opacity:0.94117647" />
    <circle
       cx="223.867"
       cy="288.133"
       r="15"
       id="circle8"
       style="fill:#031926;fill-opacity:0.94117647" />
    <circle
       cx="281.62451"
       cy="233.89571"
       r="15"
       id="circle10"
       style="fill:#031926;fill-opacity:0.94117647" />
    <circle
       cx="325.01434"
       cy="221.69751"
       r="15"
       id="circle12"
       style="fill:#031926;fill-opacity:0.94117647" />
    <circle
       cx="223.867"
       cy="223.867"
       r="15"
       id="circle14"
       style="fill:#031926;fill-opacity:0.94117647" />
    <circle
       cx="368.467"
       cy="256"
       r="15"
       id="circle16"
       style="fill:#031926;fill-opacity:0.94117647" />
    <circle
       cx="143.533"
       cy="256"
       r="15"
       id="circle18"
       style="fill:#031926;fill-opacity:0.94117647" />
    <circle
       cx="335.526"
       cy="176.478"
       r="15"
       id="circle20"
       style="fill:#031926;fill-opacity:0.94117647" />
    <circle
       cx="176.474"
       cy="335.53"
       r="15"
       id="circle22"
       style="fill:#031926;fill-opacity:0.94117647" />
    <circle
       cx="283.45819"
       cy="292.14017"
       r="15"
       id="circle24"
       style="fill:#031926;fill-opacity:0.94117647" />
    <circle
       cx="176.474"
       cy="176.478"
       r="15"
       id="circle26"
       style="fill:#031926;fill-opacity:0.94117647" />
    <path
       style="fill:#ffffff;fill-opacity:0.94117647;stroke-width:0.76703107"
       d="M 233.76568,427.4474 C 179.18361,421.27718 129.95899,384.95939 103.65982,331.45563 86.396795,296.33526 81.117718,258.98235 88.344328,223.08853 100.67773,161.8298 149.41446,107.34843 209.03533,88.171559 c 17.78231,-5.719628 33.00093,-7.795179 52.26131,-7.127521 39.47375,1.368354 77.59464,15.475109 107.76786,39.879832 8.23279,6.65885 21.90472,20.84159 28.11927,29.16985 18.52702,24.82852 28.90564,52.66715 31.41038,84.25227 1.01932,12.85368 0.50941,16.36304 -3.227,22.20948 -5.40483,8.45707 -16.10197,16.10208 -41.72906,29.82281 -27.70802,14.83487 -35.3615,20.64589 -44.99679,34.16448 -11.45224,16.06783 -19.45071,30.89906 -30.43475,56.43395 -10.82665,25.16903 -15.56015,33.33135 -23.21059,40.02377 -4.70513,4.11593 -11.96639,7.79223 -18.52593,9.37947 -5.96568,1.44355 -24.13214,2.03649 -32.70435,1.06745 z m 30.81772,-46.42606 c 14.1998,-9.86485 3.65454,-31.7819 -13.04239,-27.10705 -6.06664,1.69856 -10.95421,8.18008 -10.95421,14.52663 0,5.81117 4.98166,12.94688 10.13356,14.51526 4.49138,1.36729 10.27095,0.56064 13.86304,-1.93484 z m -81.90087,-31.65263 c 11.04947,-5.01967 12.0108,-20.69546 1.65538,-26.99297 -8.2639,-5.02557 -19.6027,-0.60464 -22.3727,8.72299 -3.72423,12.54083 8.87359,23.65046 20.71732,18.26998 z m 107.56486,-43.62386 c 7.63602,-3.49203 10.80496,-14.13889 6.37599,-21.42173 -4.70663,-7.73943 -16.18163,-9.68539 -22.80754,-3.86776 -5.31791,4.66918 -6.97008,11.73649 -4.16174,17.80221 3.71708,8.02852 12.45935,11.20701 20.59329,7.48728 z m -57.55119,-5.29364 c 4.7176,-3.79934 6.4639,-7.49137 6.16521,-13.03442 -0.72959,-13.53941 -16.05825,-19.51687 -25.59449,-9.98064 -5.91196,5.91197 -6.36821,13.42158 -1.23514,20.32964 4.42179,5.95082 14.9164,7.31463 20.66442,2.68542 z m -82.00722,-31.06784 c 10.29276,-4.98263 10.62542,-21.32477 0.54051,-26.55224 -10.93367,-5.66744 -22.73881,1.26206 -22.73881,13.34745 0,11.38783 11.64374,18.31417 22.1983,13.20479 z m 224.88141,0.11762 c 9.78978,-4.99437 10.98038,-18.8904 2.18852,-25.54307 -10.10257,-7.64447 -24.41854,-0.61138 -24.41854,11.99623 0,6.1609 3.4466,11.63101 8.82085,13.99961 3.4975,1.54146 9.92562,1.3244 13.40917,-0.45277 z m -87.04415,-22.06248 c 5.38389,-2.66851 8.1634,-7.3397 8.1634,-13.71926 0,-15.14077 -20.43643,-20.71929 -28.08582,-7.66658 -4.23949,7.23414 -1.66189,17.36743 5.34702,21.02067 4.95364,2.58198 9.8551,2.70478 14.5754,0.36517 z m -56.12406,-10.94503 c 4.6579,-3.19165 6.26704,-6.43659 6.26704,-12.63792 0,-6.24549 -1.608,-9.44549 -6.39439,-12.72518 -2.27835,-1.56115 -3.61908,-1.84841 -8.62708,-1.84841 -5.48929,0 -6.14831,0.17687 -8.87706,2.38241 -4.42943,3.58017 -6.00786,6.78311 -6.00786,12.19118 0,3.21693 0.46058,5.38578 1.53015,7.20547 4.59159,7.81181 14.92963,10.35196 22.1092,5.43245 z m 100.29876,-1.64771 c 10.37594,-5.8316 9.85489,-21.25953 -0.90337,-26.74798 -12.50723,-6.38071 -26.58643,6.93021 -20.72379,19.59292 3.97682,8.58952 13.48056,11.73371 21.62716,7.15506 z M 180.37486,191.17714 c 7.38317,-2.01676 11.47852,-7.86551 10.9808,-15.68213 -0.52498,-8.24465 -5.58464,-13.41946 -13.6944,-14.00607 -13.99689,-1.01245 -21.71843,14.76 -12.34282,25.21212 2.65108,2.95548 7.13297,5.22114 10.45423,5.28476 0.84373,0.0162 2.91472,-0.34774 4.60219,-0.80868 z m 159.53993,-0.013 c 5.74855,-1.59588 11.10388,-8.79164 11.1202,-14.94182 0.007,-2.54224 -1.57076,-6.59603 -3.66185,-9.40999 -4.42033,-5.94839 -14.91763,-7.30107 -20.67533,-2.6642 -6.31441,5.08521 -8.12272,12.75728 -4.5841,19.44891 2.00559,3.79262 4.31895,5.74162 8.64359,7.28221 3.71992,1.32516 5.23999,1.37245 9.15749,0.28489 z m -76.31547,-34.42465 c 10.57784,-5.3964 9.8899,-21.93628 -1.12041,-26.93757 -9.54132,-4.33402 -20.39613,1.76456 -21.62617,12.15028 -0.39696,3.35172 -0.15124,4.64656 1.52742,8.04889 4.06691,8.24286 12.821,11.02283 21.21916,6.7384 z"
       id="path828"
       inkscape:connector-curvature="0" />
  </g>
</svg>
