<svg xmlns="http://www.w3.org/2000/svg" xml:space="preserve" width="1201px" height="506px" style="shape-rendering:geometricPrecision; text-rendering:geometricPrecision; image-rendering:optimizeQuality; fill-rule:evenodd; clip-rule:evenodd" viewBox="0 0 3176 1338" xmlns:xlink="http://www.w3.org/1999/xlink">
<style type="text/css">
.fil0 {fill:#1E1953}
.fil1 {fill:#8DC645}
</style>
<path class="fil0" d="M513 1327l0 -729 409 0 0 94 -298 0 0 208 282 0 0 93 -282 0 0 239 314 0 0 94 -425 0zm665 12c-57,0 -188,-23 -188,-232l0 -307 112 0 0 291c0,104 35,154 107,154 62,0 101,-43 117,-79 5,-13 8,-29 8,-44l0 -322 112 0 0 380c0,58 1,102 4,139l1 9 -101 0 -4 -69c-25,33 -77,81 -167,81z"/>
<path class="fil1" d="M2372 729c-37,0 -66,-28 -66,-66 0,-38 29,-67 68,-67 39,0 67,28 67,67 1,17 -6,34 -17,46 -13,13 -31,20 -51,20zm-817 598l0 -360c0,-66 -1,-115 -4,-159l-1 -9 100 0 3 79c26,-50 73,-84 125,-90l0 -1 9 0 55 0 0 87 -53 0c-60,0 -105,43 -118,112 -2,12 -4,27 -4,42l0 299 -111 0zm763 0l0 -528 112 0 0 528 -112 0zm220 0l0 -767 112 0 0 767 -112 0zm-440 -261c-130,0 -196,36 -196,107 0,59 42,80 80,80 66,0 105,-43 117,-80 3,-9 5,-19 5,-27l0 -80c-2,0 -4,0 -6,0zm-141 273c-110,0 -168,-78 -168,-155 0,-127 111,-198 313,-199l0 -2c0,-67 -31,-103 -92,-109l-108 0 0 -87 117 0 0 0c159,6 193,121 193,217l0 191c0,51 3,90 8,121l2 10 -104 0 -6 -55c-37,42 -94,67 -156,67z"/>
<path class="fil1" d="M2584 71c-2,-1 10,1 30,7 1,-3 1,-10 1,-11 -16,-2 -34,-3 -53,3 17,17 32,6 22,1zm480 -15l-65 4c3,1 6,2 10,4 -8,-1 5,1 20,3 8,1 15,1 21,2 3,1 6,1 7,2 1,0 1,1 2,1l1 1 0 0c0,1 0,-1 1,-2l0 0c0,1 -1,2 -1,3 0,1 0,0 0,1 0,0 -14,0 -27,-1 -13,-2 -28,-5 -46,-7 -17,-1 -36,-3 -56,-2 -20,1 -40,3 -60,8 -39,10 -69,6 -110,11 -2,0 -17,2 -22,3 -10,1 -36,10 -41,10 1,9 -15,6 -23,5 0,3 0,5 -1,8 -1,0 -11,3 -13,4 -10,4 -22,-1 -32,-3 0,0 0,-6 -1,-7 -51,20 -116,41 -125,-1 19,85 -365,25 -380,130 0,2 144,-39 169,-45 -195,80 -326,203 -523,279 -118,48 -286,101 -399,4 -61,-53 -108,-150 -151,-205 -29,-36 -63,-61 -101,-76 18,-2 35,-3 51,-2 103,2 194,59 221,83 198,169 423,-43 613,-114 14,0 48,-2 47,-3 13,-7 27,-14 42,-21 -11,3 -23,4 -34,5 21,-7 39,-12 55,-15 45,-20 166,-55 174,-56 14,-3 28,-5 42,-6 -2,1 -4,2 -5,3 -1,1 -15,5 -18,6 -3,2 -7,3 -10,5 15,-2 26,-4 42,9 -33,-27 261,-32 302,-33 25,0 42,18 52,16 11,-2 53,-4 65,-4 0,0 15,-5 16,-6 9,-7 12,-1 23,-5 7,-2 9,-5 16,-3 2,0 5,-4 6,-4 8,0 7,7 8,-2 1,-3 11,10 14,9 5,-3 11,0 17,-1 1,-1 2,-1 2,-2 2,-1 5,0 8,0 9,-1 17,-7 25,-8 5,-1 24,0 42,2 18,2 36,6 39,9l0 0c-1,0 -2,0 -2,0 0,0 -15,-3 -20,-3 -5,0 -11,-1 -16,-1 -8,1 -10,2 2,3 13,1 22,2 13,2 -9,0 -21,0 -33,1 -24,1 60,4 65,4 1,0 3,1 4,2 15,0 29,0 42,0 7,0 28,-2 35,0zm-470 91c6,-6 56,-15 117,-23 -42,-6 -87,-8 -117,23zm568 -108c-34,16 -64,-7 -104,4 17,18 36,7 17,-1 4,2 145,22 87,-2zm-358 88c29,-5 47,-12 63,-18 -47,3 -106,9 -156,16 37,5 73,13 93,3zm63 -18c41,-3 73,-4 85,-2 -43,-11 -62,-6 -85,2zm26 -89c-17,0 -34,1 -51,1 18,17 35,16 51,-1zm-2497 491c-21,16 -277,204 -383,117 -25,-26 -10,-80 26,-118l6 -6c20,-17 156,-93 205,-123 128,-80 261,-202 524,-326 188,-89 483,-91 649,175 -290,-321 -917,197 -1026,281z"/>
</svg>