<?xml version="1.0" encoding="UTF-8" standalone="no"?>
<svg
   xmlns:dc="http://purl.org/dc/elements/1.1/"
   xmlns:cc="http://creativecommons.org/ns#"
   xmlns:rdf="http://www.w3.org/1999/02/22-rdf-syntax-ns#"
   xmlns:svg="http://www.w3.org/2000/svg"
   xmlns="http://www.w3.org/2000/svg"
   xmlns:sodipodi="http://sodipodi.sourceforge.net/DTD/sodipodi-0.dtd"
   xmlns:inkscape="http://www.inkscape.org/namespaces/inkscape"
   version="1.1"
   id="Layer_1"
   x="0px"
   y="0px"
   width="130.90463"
   height="130.90463"
   viewBox="0 0 130.90463 130.90463"
   enable-background="new 0 0 1400 980"
   xml:space="preserve"
   sodipodi:docname="icon.svg"
   inkscape:version="1.0.1 (3bc2e813f5, 2020-09-07)"><metadata
   id="metadata43"><rdf:RDF><cc:Work
       rdf:about=""><dc:format>image/svg+xml</dc:format><dc:type
         rdf:resource="http://purl.org/dc/dcmitype/StillImage" /><dc:title></dc:title></cc:Work></rdf:RDF></metadata><defs
   id="defs41">
	
</defs><sodipodi:namedview
   pagecolor="#ffffff"
   bordercolor="#666666"
   borderopacity="1"
   objecttolerance="10"
   gridtolerance="10"
   guidetolerance="10"
   inkscape:pageopacity="0"
   inkscape:pageshadow="2"
   inkscape:window-width="1920"
   inkscape:window-height="1012"
   id="namedview39"
   showgrid="false"
   inkscape:zoom="3.444898"
   inkscape:cx="-30.176201"
   inkscape:cy="53.683109"
   inkscape:window-x="1920"
   inkscape:window-y="36"
   inkscape:window-maximized="1"
   inkscape:current-layer="layer2"
   inkscape:document-rotation="0"><inkscape:grid
     type="xygrid"
     id="grid840" /></sodipodi:namedview>









<ellipse
   style="fill:#ffffff;stroke-width:3.6"
   id="path834"
   cx="75.260788"
   cy="60.346367"
   rx="0.82709074"
   ry="1.6425055" /><g
   inkscape:groupmode="layer"
   id="layer1"
   inkscape:label="Layer 1"><circle
     style="fill:#ffffff;stroke-width:3.6"
     id="path832"
     cx="64.847084"
     cy="65.527504"
     r="65.452316" /></g><g
   inkscape:groupmode="layer"
   id="layer2"
   inkscape:label="Layer 2"><path
     fill-rule="evenodd"
     clip-rule="evenodd"
     fill="#22300a"
     d="m 63.363756,19.961125 c -1.123738,-2.082218 -3.338156,-3.470359 -5.949188,-3.470359 -3.767818,0 -6.74241,2.908489 -6.74241,6.477995 v 0.16526 h -0.396613 c -1.388143,0 -2.544929,0.95848 -2.544929,2.14832 0,0.36356 0.09915,0.72712 0.264409,1.02458 -0.165256,-0.0661 -0.363562,-0.0992 -0.561868,-0.0992 -0.859327,0 -1.553398,0.52883 -1.817807,1.32205 -0.231357,-0.29746 -0.627969,-0.49577 -1.090684,-0.49577 -0.462714,0 -1.050897,-0.80928 -1.315305,-0.47877 -0.132204,-0.033 -0.464942,-0.12016 -0.630197,-0.12016 -0.661021,0 -0.929937,1.32606 -1.425703,1.75572 -0.95848,-0.56187 -2.148317,-0.92543 -3.437307,-0.92543 -3.338154,0 -6.015287,2.28052 -6.015287,5.08986 0,2.01611 1.355092,3.73477 3.338154,4.56104 -0.0661,0.16525 -0.09915,0.33051 -0.09915,0.52882 0,0.89237 0.793225,1.6195 1.751705,1.6195 0.09915,0 0.231357,0 0.330511,-0.033 0.165255,0.85934 -1.234186,1.0465 -0.804522,1.77362 -2.049164,1.25594 -1.872612,3.84506 -2.500582,6.15863 -1.487296,0.29744 -2.644082,1.71864 -2.644082,3.43729 0,1.35509 0.694072,2.51188 1.718653,3.07375 -0.231357,0.46271 -0.396612,0.99153 -0.396612,1.5534 0,2.04916 1.883909,3.73476 4.230532,3.73476 0.594919,0 1.156786,-0.0992 1.652552,-0.29746 0.132204,1.02458 0.859327,1.78475 1.685602,1.78475 0.793225,0 1.487296,-0.69407 1.685603,-1.6195 0.264408,0.033 0.528816,0.0661 0.826275,0.0992 0,1.18984 0.95848,2.14833 2.115266,2.14833 0.760174,0 1.454245,-0.42967 1.817807,-1.02459 0.694072,0.66102 1.652552,1.09068 2.677133,1.09068 1.487296,0 2.776287,-0.82627 3.404256,-2.0161 2.478828,1.8178 3.859786,5.808 4.487755,8.08852 1.090684,3.866974 2.188553,6.718334 2.783472,11.411584 -0.694071,-0.0992 -2.049164,-0.39661 -3.106796,-1.12373 -1.388144,-0.95848 -2.049165,-3.00765 -3.272053,-4.06528 0.231358,-0.33051 0.33051,-0.76018 0.33051,-1.18984 0,-1.22288 -1.024581,-2.24747 -2.247469,-2.24747 -0.561868,0 -1.057633,0.19831 -1.454246,0.52882 -0.264408,-0.29746 -0.661021,-0.49577 -1.123735,-0.49577 -0.760174,0 -1.388143,0.49577 -1.388143,1.12374 0,0.19831 0.0661,0.36356 0.132204,0.49576 -0.429664,0.33051 -0.760173,0.76018 -0.95848,1.25594 -0.363561,-0.1983 -0.793224,-0.29745 -1.222888,-0.29745 -1.28899,0 -2.313572,0.82627 -2.313572,1.85085 0,1.02458 1.156786,1.85086 2.445776,1.85086 0.29746,0 0.363562,-0.033 1.024582,-0.1322 v 0 c 0,0.99152 0.594918,1.78475 1.520347,1.78475 0.495766,0 0.892379,-0.26441 1.222888,-0.66102 0.198307,0.23136 0.462715,0.39661 0.793225,0.39661 0.62797,0 1.123735,-0.56186 1.189837,-1.25593 0.95848,-0.42967 1.652552,-1.25595 1.784756,-2.24748 0.198307,0.23136 0.429664,0.46272 0.62797,0.72713 1.784755,2.11526 1.222888,3.4373 6.544104,6.90766 l 0.03305,0.16526 c 1.255939,5.88308 0.396612,8.2297 0.462714,15.302621 0.03305,4.164434 0.925429,7.172084 1.652552,8.923784 v 0 c 0,0 -0.33051,2.24747 -1.355092,2.61103 -1.024582,0.39662 -1.668228,-0.4711 -2.957218,0.25603 -1.28899,0.69407 -2.129501,0.40657 -3.187134,0.73708 -1.057633,0.29745 -2.449742,0.71445 -1.458211,0.7475 0.95848,0.033 2.51197,-0.006 4.693338,-0.8321 2.181368,-0.82628 2.082949,0.94235 3.206684,0.64489 1.090684,-0.29746 1.487294,-0.36356 1.65255,0.0661 0.165255,0.42967 -0.991529,1.32205 -1.950009,2.11527 -0.991531,0.79322 -3.371205,1.6195 -4.924604,2.01611 -1.586449,0.39662 -1.95001,0.95848 -0.694071,0.85933 1.255939,-0.0661 3.933072,-0.42966 5.949185,-1.71865 1.024582,-0.6445 3.295784,-1.71348 3.474492,-0.53295 0.09468,0.62552 1.434909,0.65459 1.531679,1.19308 0.62526,3.47935 0.63184,3.22517 1.00264,0.4 0.10635,-0.8102 -0.66493,-1.87809 -0.23382,-2.93591 0.23298,-0.57166 0.85697,-0.56422 0.90922,-1.0038 2.0926,0.10384 2.00821,0.69821 2.80143,1.65669 0.79323,0.92542 0.82628,1.71865 0.85933,2.71018 0.033,0.95848 0.42966,2.04916 0.99153,2.87544 0.56187,0.85933 0.46272,-0.42966 -0.16525,-1.6856 -0.62798,-1.25594 0.23136,-1.42119 0.23136,-2.31357 0,-0.89238 -1.09069,-1.91697 -0.79323,-2.80934 0.29746,-0.89238 2.61103,0.23136 5.15596,1.28899 2.54493,1.05764 3.80088,0 2.34663,-0.33051 -1.45425,-0.36356 -2.77629,-0.72712 -6.0814,-2.04917 -3.3051,-1.32203 -6.19601,-4.71577 -6.19601,-4.71577 -0.72712,-1.09069 -0.77775,-1.56392 -1.769285,-5.19954 -1.586451,-5.783939 -0.793222,-12.294975 -2.346619,-18.409415 -1.288993,-4.99071 -0.462718,-11.17126 2.478826,-16.261114 1.189838,1.65254 2.941538,2.710184 4.858498,2.710184 5.39037,3.08973 6.71625,-2.491414 8.98988,-2.677144 0.92544,0 1.78477,-0.23135 2.47884,-0.66101 0.82627,0.42966 1.7517,0.66101 2.77628,0.66101 3.04069,0 5.519525,-2.24746 5.519525,-4.95765 0,-0.72712 -0.16526,-1.45424 -0.49577,-2.08222 1.52035,-0.3966 2.776287,-1.42119 3.437297,-2.80933 0.89239,-0.0992 1.6195,-0.85933 1.65256,-1.8178 1.15678,-0.39662 1.983064,-1.3551 1.983064,-2.47883 0,-1.35509 -1.189844,-2.44578 -2.743234,-2.64408 v -0.19831 c 0,-1.5534 -1.4212,-2.80934 -3.172907,-2.80934 -0.52881,0 -1.02458,0.0991 -1.487285,0.33051 -0.1983,-0.56186 -0.42966,-1.09068 -0.72713,-1.58645 1.222895,-0.16525 2.148325,-0.99153 2.148325,-1.95 0,-0.95849 -0.89239,-1.75171 -2.049165,-1.95001 -0.26441,-1.58646 -1.52035,-2.77629 -3.07375,-2.77629 -0.1322,0 -0.26441,0 -0.39661,0.033 -0.0825,-8.09973 -3.90174,-6.91431 -6.2797,-8.13055 0.0661,-0.23136 0.0661,-0.46271 0.0661,-0.72712 0,-1.6195 -1.15678,-2.94155 -2.61103,-2.94155 -0.1322,0 -0.23136,0 -0.36356,0.033 -0.23136,-1.18984 -1.25594,-2.08222 -2.51188,-2.08222 h -0.23136 c -0.16525,-2.34662 -1.98306,-4.230531 -4.19747,-4.230531 -0.99154,0 -1.88391,0.363566 -2.61104,0.991533 -0.23136,-0.0661 -0.46271,-0.132207 -0.72712,-0.132207 -0.495762,0 -0.95848,0.165255 -1.32204,0.429669 -0.03304,-0.56187 -0.528815,-0.991533 -1.156788,-0.991533 z m -5.453422,35.001036 c -0.03305,0.26441 -0.0661,0.52882 -0.0661,0.82628 0,1.91695 1.057632,3.53645 2.577979,4.32968 -0.132203,0.29746 -0.135505,4.35577 -0.135505,4.65324 -0.565982,3.663264 -3.155736,-4.66574 -4.57693,-5.32676 -1.255939,-0.56186 -1.098137,-1.63998 -2.85625,-1.21039 0.09915,-0.33051 0.165255,-0.66102 0.165255,-1.02458 0,-0.52882 -0.09915,-1.02458 -0.33051,-1.4873 0.760173,-0.49576 1.355092,-1.22288 1.652551,-2.08221 1.123736,0.52882 2.313573,0.99153 3.569512,1.32204 z"
     id="path10"
     sodipodi:nodetypes="csscsscscscscsscsscccscsscsccscscccccsscssccsssssscsccccccscccccscsccccssssccccsssscscccccccsscccscssccscsccsscscscscccsccccsccc"
     style="fill:#000000;stroke-width:0.33051" /></g></svg>
