<?xml version="1.0" encoding="UTF-8" standalone="no"?>
<svg
   xmlns:dc="http://purl.org/dc/elements/1.1/"
   xmlns:cc="http://creativecommons.org/ns#"
   xmlns:rdf="http://www.w3.org/1999/02/22-rdf-syntax-ns#"
   xmlns:svg="http://www.w3.org/2000/svg"
   xmlns="http://www.w3.org/2000/svg"
   xmlns:inkscape="http://www.inkscape.org/namespaces/inkscape"
   version="1.1"
   id="Layer_1"
   x="0px"
   y="0px"
   width="198.89999"
   height="307.64301"
   viewBox="0 0 198.89999 307.64301"
   enable-background="new 0 0 1400 980"
   xml:space="preserve"
   sodipodi:docname="treesvg.svg"
   inkscape:version="1.0.1 (3bc2e813f5, 2020-09-07)">

<path
   fill-rule="evenodd"
   clip-rule="evenodd"
   fill="#22300a"
   d="M 101.2,10.5 C 104.6,4.2 111.3,0 119.2,0 c 11.4,0 20.4,8.8 20.4,19.6 v 0.5 h 1.2 c 4.2,0 7.7,2.9 7.7,6.5 0,1.1 -0.3,2.2 -0.8,3.1 0.5,-0.2 1.1,-0.3 1.7,-0.3 2.6,0 4.7,1.6 5.5,4 0.7,-0.9 1.9,-1.5 3.3,-1.5 1.4,0 3.17962,-2.448584 3.97962,-1.448584 0.4,-0.1 1.40674,-0.363575 1.90674,-0.363575 2,0 2.81364,4.012159 4.31364,5.312159 2.9,-1.7 6.5,-2.8 10.4,-2.8 10.1,0 18.2,6.9 18.2,15.4 0,6.1 -4.1,11.3 -10.1,13.8 0.2,0.5 0.3,1 0.3,1.6 0,2.7 -2.4,4.9 -5.3,4.9 -0.3,0 -0.7,0 -1,-0.1 -0.5,2.6 3.73418,3.166293 2.43418,5.366293 6.2,3.8 5.66582,11.633707 7.56582,18.633707 4.5,0.9 8,5.2 8,10.4 0,4.1 -2.1,7.6 -5.2,9.3 0.7,1.4 1.2,3 1.2,4.7 0,6.2 -5.7,11.3 -12.8,11.3 -1.8,0 -3.5,-0.3 -5,-0.9 -0.4,3.1 -2.6,5.4 -5.1,5.4 -2.4,0 -4.5,-2.1 -5.1,-4.9 -0.8,0.1 -1.6,0.2 -2.5,0.3 0,3.6 -2.9,6.5 -6.4,6.5 -2.3,0 -4.4,-1.3 -5.5,-3.1 -2.1,2 -5,3.3 -8.1,3.3 -4.5,0 -8.4,-2.5 -10.3,-6.1 -7.5,5.5 -11.67826,17.57284 -13.57826,24.47284 -3.3,11.7 -6.62174,20.32716 -8.42174,34.52716 2.1,-0.3 6.2,-1.2 9.4,-3.4 4.2,-2.9 6.2,-9.1 9.9,-12.3 -0.7,-1 -1,-2.3 -1,-3.6 0,-3.7 3.1,-6.8 6.8,-6.8 1.7,0 3.2,0.6 4.4,1.6 0.8,-0.9 2,-1.5 3.4,-1.5 2.3,0 4.2,1.5 4.2,3.4 0,0.6 -0.2,1.1 -0.4,1.5 1.3,1 2.3,2.3 2.9,3.8 1.1,-0.6 2.4,-0.9 3.7,-0.9 3.9,0 7,2.5 7,5.6 0,3.1 -3.5,5.6 -7.4,5.6 -0.9,0 -1.1,-0.1 -3.1,-0.4 v 0 c 0,3 -1.8,5.4 -4.6,5.4 -1.5,0 -2.7,-0.8 -3.7,-2 -0.6,0.7 -1.4,1.2 -2.4,1.2 -1.9,0 -3.4,-1.7 -3.6,-3.8 -2.9,-1.3 -5,-3.8 -5.4,-6.8 -0.6,0.7 -1.3,1.4 -1.9,2.2 -5.4,6.4 -3.7,10.4 -19.8,20.9 l -0.1,0.5 c -3.8,17.8 -1.2,24.9 -1.4,46.3 -0.1,12.6 -2.8,21.7 -5,27 v 0 c 0,0 1,6.8 4.1,7.9 3.1,1.2 5.04743,-1.42538 8.94743,0.77462 3.9,2.1 6.44307,1.23013 9.64307,2.23013 3.2,0.9 7.412,2.16167 4.412,2.26167 -2.9,0.1 -7.60028,-0.0176 -14.20028,-2.51763 -6.6,-2.5 -6.30222,2.85121 -9.70222,1.95121 -3.3,-0.9 -4.5,-1.1 -5,0.2 -0.5,1.3 3,4 5.9,6.4 3,2.4 10.2,4.9 14.9,6.1 4.8,1.2 5.9,2.9 2.1,2.6 -3.8,-0.2 -11.9,-1.3 -18,-5.2 -3.1,-1.95 -9.97181,-5.18433 -10.5125,-1.6125 -0.28649,1.8926 -4.3415,1.98056 -4.63429,3.60983 -1.89179,10.52719 -1.91171,9.75816 -3.03363,1.21025 -0.32175,-2.45137 2.01185,-5.6824 0.70745,-8.88299 -0.7049,-1.72961 -2.59284,-1.7071 -2.75093,-3.03711 C 80.54468,285.20168 80.8,287 78.4,289.9 c -2.4,2.8 -2.5,5.2 -2.6,8.2 -0.1,2.9 -1.3,6.2 -3,8.7 -1.7,2.6 -1.4,-1.3 0.5,-5.1 1.9,-3.8 -0.7,-4.3 -0.7,-7 0,-2.7 3.3,-5.8 2.4,-8.5 -0.9,-2.7 -7.9,0.7 -15.6,3.9 -7.7,3.2 -11.5,0 -7.1,-1 4.4,-1.1 8.4,-2.2 18.4,-6.2 10,-4 18.74682,-14.26818 18.74682,-14.26818 2.2,-3.3 2.35318,-4.73182 5.35318,-15.73182 4.8,-17.5 2.4,-37.2 7.1,-55.7 3.9,-15.1 1.4,-33.8 -7.5,-49.2 -3.6,5 -8.9,8.2 -14.7,8.2 -16.30922,9.34837 -20.32084,-7.53806 -27.2,-8.1 -2.8,0 -5.4,-0.7 -7.5,-2 -2.5,1.3 -5.3,2 -8.4,2 -9.2,0 -16.7,-6.8 -16.7,-15 0,-2.2 0.5,-4.4 1.5,-6.3 -4.6,-1.2 -8.4,-4.3 -10.4,-8.5 -2.7,-0.3 -4.9,-2.6 -5,-5.5 -3.5,-1.2 -6,-4.1 -6,-7.5 0,-4.1 3.6,-7.4 8.3,-8 v -0.6 c 0,-4.7 4.3,-8.5 9.6,-8.5 1.6,0 3.1,0.3 4.5,1 0.6,-1.7 1.3,-3.3 2.2,-4.8 -3.7,-0.5 -6.5,-3 -6.5,-5.9 0,-2.9 2.7,-5.3 6.2,-5.9 0.8,-4.8 4.6,-8.4 9.3,-8.4 0.4,0 0.8,0 1.2,0.1 0.249738,-24.506752 11.805208,-20.920117 19,-24.6 -0.2,-0.7 -0.2,-1.4 -0.2,-2.2 0,-4.9 3.5,-8.9 7.9,-8.9 0.4,0 0.7,0 1.1,0.1 0.7,-3.6 3.8,-6.3 7.6,-6.3 h 0.7 c 0.5,-7.1 6,-12.8 12.7,-12.8 3,0 5.7,1.1 7.9,3 0.7,-0.2 1.4,-0.4 2.2,-0.4 1.5,0 2.9,0.5 4,1.3 0.1,-1.7 1.6,-3 3.5,-3 z m 16.5,105.9 c 0.1,0.8 0.2,1.6 0.2,2.5 0,5.8 -3.2,10.7 -7.8,13.1 0.4,0.9 0.40999,13.17894 0.40999,14.07894 1.71245,11.08367 9.54807,-14.11675 13.84807,-16.11675 3.8,-1.7 3.32255,-4.96199 8.64194,-3.66219 -0.3,-1 -0.5,-2 -0.5,-3.1 0,-1.6 0.3,-3.1 1,-4.5 -2.3,-1.5 -4.1,-3.7 -5,-6.3 -3.4,1.6 -7,3 -10.8,4 z"
   id="path10"
   style="fill:#000000" />
</svg>
